<?xml version="1.0" encoding="UTF-8" standalone="no"?>
<svg
   xmlns:dc="http://purl.org/dc/elements/1.1/"
   xmlns:cc="http://creativecommons.org/ns#"
   xmlns:rdf="http://www.w3.org/1999/02/22-rdf-syntax-ns#"
   xmlns:svg="http://www.w3.org/2000/svg"
   xmlns="http://www.w3.org/2000/svg"
   xmlns:sodipodi="http://sodipodi.sourceforge.net/DTD/sodipodi-0.dtd"
   xmlns:inkscape="http://www.inkscape.org/namespaces/inkscape"
   width="700"
   height="700"
   viewBox="0 0 700 700"
   version="1.1"
   id="svg45"
   sodipodi:docname="qualicorp-logo.svg"
   style="fill:none"
   inkscape:version="0.92.4 (5da689c313, 2019-01-14)"
   inkscape:export-filename="C:\Users\suitedoalex\sites\qualicorp-logo-0.png"
   inkscape:export-xdpi="561.73712"
   inkscape:export-ydpi="561.73712">
  <metadata
     id="metadata49">
    <rdf:RDF>
      <cc:Work
         rdf:about="">
        <dc:format>image/svg+xml</dc:format>
        <dc:type
           rdf:resource="http://purl.org/dc/dcmitype/StillImage" />
        <dc:title></dc:title>
      </cc:Work>
    </rdf:RDF>
  </metadata>
  <sodipodi:namedview
     pagecolor="#ffffff"
     bordercolor="#666666"
     borderopacity="1"
     objecttolerance="10"
     gridtolerance="10"
     guidetolerance="10"
     inkscape:pageopacity="0"
     inkscape:pageshadow="2"
     inkscape:window-width="1920"
     inkscape:window-height="1017"
     id="namedview47"
     showgrid="false"
     inkscape:zoom="0.42214915"
     inkscape:cx="931.54522"
     inkscape:cy="240.00238"
     inkscape:window-x="-8"
     inkscape:window-y="-8"
     inkscape:window-maximized="1"
     inkscape:current-layer="svg45" />
  <g
     clip-path="url(#clip0_11_2942)"
     id="g38"
     transform="matrix(3.1547086,0,0,3.1547086,73.622284,249.04932)"
     inkscape:export-filename="C:\Users\suitedoalex\sites\qualicorp-logo-4.png"
     inkscape:export-xdpi="69.470139"
     inkscape:export-ydpi="69.470139">
    <path
       d="m 56.4671,33.5846 c 2.0285,0 3.673,-1.6444 3.673,-3.6729 0,-2.0285 -1.6445,-3.6729 -3.673,-3.6729 -2.0285,0 -3.6729,1.6444 -3.6729,3.6729 0,2.0285 1.6444,3.6729 3.6729,3.6729 z"
       id="path2"
       inkscape:connector-curvature="0"
       style="fill:#171a88" />
    <path
       d="m 30.0366,12.375 c -3.4685,0 -6.859,1.0285 -9.743,2.9555 -2.8839,1.927 -5.1316,4.6658 -6.4589,7.8703 -1.3273,3.2044 -1.6746,6.7305 -0.998,10.1323 0.6767,3.4018 2.3469,6.5265 4.7995,8.9791 2.4525,2.4526 5.5773,4.1228 8.9791,4.7994 3.4018,0.6767 6.9279,0.3294 10.1323,-0.9979 3.2045,-1.3273 5.9433,-3.5751 7.8703,-6.459 1.927,-2.8839 2.9555,-6.2744 2.9555,-9.7429 0,-2.303 -0.4536,-4.5834 -1.3349,-6.711 C 45.3572,21.0731 44.0654,19.1399 42.437,17.5114 40.8085,15.883 38.8753,14.5912 36.7476,13.7099 34.62,12.8286 32.3395,12.375 30.0366,12.375 Z m 0,29.3275 c -2.3323,0 -4.6121,-0.6916 -6.5513,-1.9873 -1.9391,-1.2957 -3.4505,-3.1374 -4.343,-5.2921 -0.8925,-2.1548 -1.1259,-4.5257 -0.6708,-6.8131 0.455,-2.2875 1.5782,-4.3885 3.2274,-6.0376 1.6492,-1.6491 3.7504,-2.772 6.0378,-3.2269 2.2875,-0.4549 4.6585,-0.2212 6.8131,0.6714 2.1546,0.8927 3.9962,2.4042 5.2918,4.3435 1.2955,1.9393 1.987,4.2192 1.9868,6.5514 0,1.5485 -0.3051,3.0818 -0.8977,4.5124 -0.5926,1.4305 -1.4612,2.7304 -2.5561,3.8253 -1.095,1.0949 -2.3949,1.9633 -3.8256,2.5558 -1.4306,0.5925 -2.9639,0.8974 -4.5124,0.8972 z"
       id="path4"
       inkscape:connector-curvature="0"
       style="fill:#ffb61e" />
    <path
       d="m 3.67293,33.9025 c 2.0285,0 3.67293,-1.6444 3.67293,-3.6729 0,-2.0285 -1.64443,-3.673 -3.67293,-3.673 C 1.64443,26.5566 0,28.2011 0,30.2296 c 0,2.0285 1.64443,3.6729 3.67293,3.6729 z"
       id="path6"
       inkscape:connector-curvature="0"
       style="fill:#171a88" />
    <path
       d="m 30.2296,60.1403 c 2.0285,0 3.6729,-1.6444 3.6729,-3.6729 0,-2.0285 -1.6444,-3.673 -3.6729,-3.673 -2.0285,0 -3.673,1.6445 -3.673,3.673 0,2.0285 1.6445,3.6729 3.673,3.6729 z"
       id="path8"
       inkscape:connector-curvature="0"
       style="fill:#171a88" />
    <path
       d="m 29.9117,7.34586 c 2.0285,0 3.6729,-1.64443 3.6729,-3.67293 C 33.5846,1.64443 31.9402,0 29.9117,0 c -2.0285,0 -3.6729,1.64443 -3.6729,3.67293 0,2.0285 1.6444,3.67293 3.6729,3.67293 z"
       id="path10"
       inkscape:connector-curvature="0"
       style="fill:#171a88" />
    <path
       d="m 48.8482,52.2966 c 2.0285,0 3.6729,-1.6444 3.6729,-3.6729 0,-2.0286 -1.6444,-3.673 -3.6729,-3.673 -2.0285,0 -3.6729,1.6444 -3.6729,3.673 0,2.0285 1.6444,3.6729 3.6729,3.6729 z"
       id="path12"
       inkscape:connector-curvature="0"
       style="fill:#ffb61e" />
    <path
       d="m 11.2921,15.1906 c 2.0285,0 3.6729,-1.6444 3.6729,-3.6729 0,-2.02855 -1.6444,-3.67297 -3.6729,-3.67297 -2.02854,0 -3.67296,1.64442 -3.67296,3.67297 0,2.0285 1.64442,3.6729 3.67296,3.6729 z"
       id="path14"
       inkscape:connector-curvature="0"
       style="fill:#171a88" />
    <path
       d="m 11.5177,52.5211 c 2.0285,0 3.6729,-1.6444 3.6729,-3.6729 0,-2.0285 -1.6444,-3.6729 -3.6729,-3.6729 -2.02855,0 -3.67297,1.6444 -3.67297,3.6729 0,2.0285 1.64442,3.6729 3.67297,3.6729 z"
       id="path16"
       inkscape:connector-curvature="0"
       style="fill:#171a88" />
    <path
       d="m 48.6236,14.965 c 2.0285,0 3.673,-1.6444 3.673,-3.6729 0,-2.02853 -1.6445,-3.67296 -3.673,-3.67296 -2.0285,0 -3.6729,1.64443 -3.6729,3.67296 0,2.0285 1.6444,3.6729 3.6729,3.6729 z"
       id="path18"
       inkscape:connector-curvature="0"
       style="fill:#171a88" />
    <path
       d="m 101.168,48.4737 h -5.6882 v -9.9452 c -1.8111,1.4657 -4.1818,2.3271 -7.1102,2.3271 -5.4738,0 -10.5637,-4.6125 -10.5637,-11.3763 0,-6.7639 5.0868,-11.4241 10.5637,-11.4241 2.9314,0 5.3022,0.8623 7.1102,2.3707 v -1.7267 h 5.6882 z M 95.4798,29.4793 c 0,-3.9665 -3.0604,-6.4663 -6.1209,-6.4663 -3.4535,0 -6.0355,2.4998 -6.0355,6.4663 0,3.9664 2.5871,6.4225 6.0355,6.4225 3.0564,-0.003 6.1209,-2.4601 6.1209,-6.4256 z"
       id="path20"
       inkscape:connector-curvature="0"
       style="fill:#171a88" />
    <path
       d="m 126.857,40.2096 h -5.688 v -1.94 c -1.681,1.681 -3.923,2.5861 -6.768,2.5861 -5.172,0 -8.62,-3.7065 -8.62,-9.0524 V 18.7002 h 5.688 v 11.8964 c 0,3.0178 1.726,5.0432 4.353,5.0432 3.233,0 5.345,-2.1554 5.345,-7.4149 v -9.5257 h 5.688 z"
       id="path22"
       inkscape:connector-curvature="0"
       style="fill:#171a88" />
    <path
       d="m 153.751,40.2096 h -5.688 v -1.6811 c -1.81,1.4657 -4.182,2.3271 -7.11,2.3271 -5.475,0 -10.564,-4.6125 -10.564,-11.3764 0,-6.7638 5.087,-11.424 10.564,-11.424 2.93,0 5.302,0.8623 7.11,2.3707 v -1.7267 h 5.688 z m -5.688,-10.7334 c 0,-3.9665 -3.061,-6.4662 -6.121,-6.4662 -3.454,0 -6.036,2.4997 -6.036,6.4662 0,3.9665 2.588,6.4226 6.036,6.4226 3.058,0 6.119,-2.4571 6.119,-6.4226 z"
       id="path24"
       inkscape:connector-curvature="0"
       style="fill:#171a88" />
    <path
       d="M 158.47,40.2099 V 9.17285 h 5.688 V 40.2099 Z"
       id="path26"
       inkscape:connector-curvature="0"
       style="fill:#171a88" />
    <path
       d="M 168.779,40.2095 V 18.6991 h 5.688 v 21.5104 z m 5.384,-25.7216 c -0.505,0.5041 -1.147,0.8475 -1.846,0.9866 -0.699,0.1391 -1.424,0.0677 -2.083,-0.2052 -0.659,-0.2728 -1.222,-0.7349 -1.618,-1.3277 -0.396,-0.5928 -0.607,-1.2898 -0.607,-2.0027 0,-0.713 0.211,-1.41 0.607,-2.00281 0.396,-0.59282 0.959,-1.05486 1.618,-1.32771 0.659,-0.27284 1.384,-0.34422 2.083,-0.20512 0.699,0.1391 1.341,0.48243 1.846,0.98659 0.675,0.67645 1.054,1.59345 1.054,2.54945 0,0.956 -0.38,1.8727 -1.056,2.5486 z"
       id="path28"
       inkscape:connector-curvature="0"
       style="fill:#171a88" />
    <path
       d="m 138.674,58.6643 c 0.734,-0.4378 1.278,-1.1342 1.524,-1.9523 l 1.022,0.2945 c -0.292,1.03 -0.912,1.8514 -1.86,2.4643 -0.971,0.6161 -2.101,0.9339 -3.25,0.9141 -1.59,0 -2.941,-0.5373 -4.053,-1.612 -1.112,-1.0746 -1.668,-2.475 -1.669,-4.2011 0,-1.6929 0.56,-3.0852 1.68,-4.1768 0.953,-0.9183 2.19,-1.4858 3.508,-1.6096 1.318,-0.1238 2.639,0.2034 3.746,0.9281 0.916,0.5967 1.595,1.495 1.918,2.5393 l -1.044,0.3403 c -0.237,-0.8497 -0.779,-1.5817 -1.524,-2.0548 -0.763,-0.4936 -1.656,-0.7502 -2.565,-0.7375 -0.61,-0.0113 -1.215,0.1016 -1.779,0.3318 -0.564,0.2301 -1.075,0.5728 -1.502,1.007 -0.902,0.8938 -1.352,2.0366 -1.351,3.4281 0,1.4383 0.446,2.5963 1.34,3.4739 0.893,0.8776 1.99,1.3178 3.292,1.3205 0.904,0.0154 1.795,-0.2266 2.567,-0.6978 z"
       id="path30"
       inkscape:connector-curvature="0"
       style="fill:#171a88" />
    <path
       d="m 152.482,50.4336 c 1.121,1.0983 1.681,2.4794 1.68,4.1432 0,1.6638 -0.56,3.0489 -1.68,4.1554 -1.12,1.1051 -2.505,1.6577 -4.154,1.6577 -1.649,0 -3.034,-0.5526 -4.156,-1.6577 -1.12,-1.1051 -1.68,-2.4903 -1.68,-4.1554 0.001,-1.6651 0.561,-3.0462 1.68,-4.1432 1.121,-1.097 2.506,-1.6455 4.156,-1.6455 1.649,0 3.034,0.5485 4.154,1.6455 z m -0.783,7.5835 c 0.916,-0.9162 1.373,-2.063 1.373,-3.4403 0,-1.3916 -0.454,-2.5427 -1.362,-3.4535 -0.908,-0.9108 -2.035,-1.3648 -3.382,-1.3621 -1.348,0 -2.475,0.454 -3.384,1.3621 -0.908,0.908 -1.362,2.0592 -1.362,3.4535 0,1.3773 0.458,2.5241 1.374,3.4403 0.915,0.9162 2.039,1.374 3.372,1.3733 1.335,0 2.458,-0.4578 3.371,-1.3733 z"
       id="path32"
       inkscape:connector-curvature="0"
       style="fill:#171a88" />
    <path
       d="m 162.326,49.015 -0.112,1.0452 c -0.218,-0.0355 -0.438,-0.0508 -0.659,-0.0457 -1.468,0 -2.622,0.5259 -3.462,1.5775 -0.839,1.0516 -1.26,2.3572 -1.262,3.9167 v 4.6318 h -1.118 V 49.0384 h 1.118 v 3.1102 c 0.433,-0.925 1.093,-1.7254 1.918,-2.3271 0.817,-0.5852 1.8,-0.8919 2.804,-0.8745 0.259,-0.0038 0.518,0.019 0.773,0.068 z"
       id="path34"
       inkscape:connector-curvature="0"
       style="fill:#171a88" />
    <path
       d="m 173.571,50.3892 c 1.091,1.0834 1.636,2.4794 1.636,4.1879 0,1.7261 -0.545,3.1265 -1.636,4.2011 -1.09,1.0747 -2.414,1.612 -3.972,1.612 -0.975,0.0102 -1.936,-0.2283 -2.793,-0.6927 -0.833,-0.4482 -1.525,-1.1205 -1.998,-1.9411 v 6.2438 h -1.117 v -14.962 h 1.117 v 2.3586 c 0.473,-0.8204 1.165,-1.4926 1.998,-1.9411 0.857,-0.464 1.818,-0.7024 2.793,-0.6927 1.559,0.0013 2.883,0.5434 3.972,1.6262 z m -0.793,7.6851 c 0.892,-0.8803 1.339,-2.046 1.34,-3.4972 0,-1.4369 -0.451,-2.5983 -1.351,-3.484 -0.901,-0.8857 -2.002,-1.3286 -3.303,-1.3286 -1.242,0 -2.328,0.4466 -3.259,1.3398 -0.931,0.8931 -1.396,2.0508 -1.396,3.4728 0,1.4221 0.462,2.58 1.385,3.4739 0.428,0.4303 0.938,0.7706 1.499,1.0007 0.562,0.2301 1.164,0.3454 1.771,0.339 1.315,0 2.42,-0.4388 3.314,-1.3164 z"
       id="path36"
       inkscape:connector-curvature="0"
       style="fill:#171a88" />
  </g>
  <defs
     id="defs43">
    <clipPath
       id="clip0_11_2942">
      <rect
         width="175.216"
         height="64"
         id="rect40"
         x="0"
         y="0"
         style="fill:#ffffff" />
    </clipPath>
  </defs>
</svg>
