<svg xmlns="http://www.w3.org/2000/svg" xmlns:xlink="http://www.w3.org/1999/xlink" width="500" zoomAndPan="magnify" viewBox="0 0 375 374.999991" height="500" preserveAspectRatio="xMidYMid meet" version="1.0"><defs><g/><clipPath id="3a29c22c63"><path d="M 28.769531 174.640625 L 346.230469 174.640625 L 346.230469 211.34375 L 28.769531 211.34375 Z M 28.769531 174.640625 " clip-rule="nonzero"/></clipPath></defs><rect x="-37.5" width="450" fill="#ffffff" y="-37.499999" height="449.999989" fill-opacity="1"/><rect x="-37.5" width="450" fill="#000000" y="-37.499999" height="449.999989" fill-opacity="1"/><g fill="#ffffff" fill-opacity="1"><g transform="translate(59.729868, 225.533364)"><g><path d="M 42.9375 -65.96875 C 47.082031 -65.96875 50.660156 -65.671875 53.671875 -65.078125 C 56.679688 -64.492188 59.640625 -63.507812 62.546875 -62.125 C 63.023438 -61.851562 63.316406 -61.59375 63.421875 -61.34375 C 63.523438 -61.101562 63.613281 -60.566406 63.6875 -59.734375 L 65.03125 -47.09375 C 65.03125 -46.882812 64.835938 -46.742188 64.453125 -46.671875 C 64.078125 -46.597656 63.851562 -46.703125 63.78125 -46.984375 C 60.394531 -58.535156 53.238281 -64.3125 42.3125 -64.3125 C 36.71875 -64.3125 31.773438 -63.03125 27.484375 -60.46875 C 23.203125 -57.90625 19.863281 -54.253906 17.46875 -49.515625 C 15.082031 -44.785156 13.890625 -39.273438 13.890625 -32.984375 C 13.890625 -26.898438 15.1875 -21.367188 17.78125 -16.390625 C 20.375 -11.410156 23.882812 -7.503906 28.3125 -4.671875 C 32.738281 -1.835938 37.578125 -0.421875 42.828125 -0.421875 C 48.296875 -0.421875 52.773438 -1.785156 56.265625 -4.515625 C 59.753906 -7.242188 62.535156 -11.476562 64.609375 -17.21875 C 64.679688 -17.425781 64.890625 -17.492188 65.234375 -17.421875 C 65.578125 -17.359375 65.75 -17.253906 65.75 -17.109375 L 64.71875 -5.5 C 64.582031 -4.664062 64.460938 -4.128906 64.359375 -3.890625 C 64.253906 -3.648438 63.957031 -3.390625 63.46875 -3.109375 C 59.945312 -1.453125 56.59375 -0.296875 53.40625 0.359375 C 50.226562 1.015625 46.671875 1.34375 42.734375 1.34375 C 35.472656 1.34375 28.988281 -0.0859375 23.28125 -2.953125 C 17.582031 -5.828125 13.125 -9.835938 9.90625 -14.984375 C 6.6875 -20.140625 5.078125 -26.035156 5.078125 -32.671875 C 5.078125 -39.171875 6.703125 -44.941406 9.953125 -49.984375 C 13.203125 -55.035156 17.710938 -58.960938 23.484375 -61.765625 C 29.265625 -64.566406 35.75 -65.96875 42.9375 -65.96875 Z M 42.9375 -65.96875 "/></g></g></g><g fill="#ffffff" fill-opacity="1"><g transform="translate(130.771901, 225.533364)"><g><path d="M 72.8125 -1.25 C 73.082031 -1.25 73.21875 -1.039062 73.21875 -0.625 C 73.21875 -0.207031 73.082031 0 72.8125 0 C 71.5 0 69.457031 -0.0664062 66.6875 -0.203125 C 63.925781 -0.347656 61.890625 -0.421875 60.578125 -0.421875 C 58.984375 -0.421875 57.007812 -0.347656 54.65625 -0.203125 C 52.445312 -0.0664062 50.71875 0 49.46875 0 C 49.195312 0 49.0625 -0.207031 49.0625 -0.625 C 49.0625 -1.039062 49.195312 -1.25 49.46875 -1.25 C 51.957031 -1.25 53.738281 -1.472656 54.8125 -1.921875 C 55.882812 -2.367188 56.421875 -3.179688 56.421875 -4.359375 C 56.421875 -5.390625 55.9375 -6.945312 54.96875 -9.03125 L 46.046875 -27.6875 L 21.265625 -27.6875 L 15.140625 -13.484375 C 14.242188 -11.410156 13.796875 -9.507812 13.796875 -7.78125 C 13.796875 -3.425781 17.148438 -1.25 23.859375 -1.25 C 24.203125 -1.25 24.375 -1.039062 24.375 -0.625 C 24.375 -0.207031 24.203125 0 23.859375 0 C 22.609375 0 20.8125 -0.0664062 18.46875 -0.203125 C 15.832031 -0.347656 13.546875 -0.421875 11.609375 -0.421875 C 9.890625 -0.421875 7.785156 -0.347656 5.296875 -0.203125 C 3.210938 -0.0664062 1.445312 0 0 0 C -0.34375 0 -0.515625 -0.207031 -0.515625 -0.625 C -0.515625 -1.039062 -0.34375 -1.25 0 -1.25 C 1.9375 -1.25 3.578125 -1.609375 4.921875 -2.328125 C 6.273438 -3.054688 7.570312 -4.351562 8.8125 -6.21875 C 10.0625 -8.09375 11.445312 -10.828125 12.96875 -14.421875 L 34.84375 -65.65625 C 34.988281 -65.863281 35.265625 -65.96875 35.671875 -65.96875 C 36.085938 -65.96875 36.332031 -65.863281 36.40625 -65.65625 L 61.09375 -14.203125 C 63.4375 -9.160156 65.4375 -5.738281 67.09375 -3.9375 C 68.757812 -2.144531 70.664062 -1.25 72.8125 -1.25 Z M 22.203125 -29.875 L 45.015625 -29.875 L 32.984375 -54.96875 Z M 22.203125 -29.875 "/></g></g></g><g fill="#ffffff" fill-opacity="1"><g transform="translate(203.784447, 225.533364)"><g><path d="M 49.6875 -15.5625 C 49.6875 -15.769531 49.890625 -15.851562 50.296875 -15.8125 C 50.710938 -15.78125 50.921875 -15.660156 50.921875 -15.453125 C 50.304688 -10.960938 50 -6.332031 50 -1.5625 C 50 -1 49.875 -0.597656 49.625 -0.359375 C 49.382812 -0.117188 48.953125 0 48.328125 0 L 4.453125 0 C 4.316406 0 4.25 -0.207031 4.25 -0.625 C 4.25 -1.039062 4.316406 -1.25 4.453125 -1.25 C 7.015625 -1.25 8.882812 -1.421875 10.0625 -1.765625 C 11.238281 -2.109375 12.03125 -2.78125 12.4375 -3.78125 C 12.851562 -4.789062 13.0625 -6.332031 13.0625 -8.40625 L 13.0625 -56.421875 C 13.0625 -58.492188 12.851562 -60.015625 12.4375 -60.984375 C 12.03125 -61.953125 11.238281 -62.625 10.0625 -63 C 8.882812 -63.382812 7.015625 -63.578125 4.453125 -63.578125 C 4.316406 -63.578125 4.25 -63.785156 4.25 -64.203125 C 4.25 -64.617188 4.316406 -64.828125 4.453125 -64.828125 L 46.5625 -64.828125 C 47.1875 -64.828125 47.5 -64.515625 47.5 -63.890625 L 47.703125 -50.921875 C 47.703125 -50.710938 47.507812 -50.609375 47.125 -50.609375 C 46.75 -50.609375 46.5625 -50.710938 46.5625 -50.921875 C 46.15625 -54.660156 44.878906 -57.53125 42.734375 -59.53125 C 40.585938 -61.539062 37.785156 -62.546875 34.328125 -62.546875 L 28.625 -62.546875 C 25.375 -62.546875 23.226562 -62.09375 22.1875 -61.1875 C 21.15625 -60.289062 20.640625 -58.566406 20.640625 -56.015625 L 20.640625 -34.84375 L 32.5625 -34.84375 C 36.019531 -34.84375 38.523438 -35.429688 40.078125 -36.609375 C 41.640625 -37.785156 42.421875 -39.6875 42.421875 -42.3125 C 42.421875 -42.457031 42.628906 -42.53125 43.046875 -42.53125 C 43.460938 -42.53125 43.671875 -42.457031 43.671875 -42.3125 L 43.5625 -33.703125 C 43.5625 -31.703125 43.597656 -30.179688 43.671875 -29.140625 L 43.765625 -23.953125 C 43.765625 -23.816406 43.554688 -23.75 43.140625 -23.75 C 42.734375 -23.75 42.53125 -23.816406 42.53125 -23.953125 C 42.53125 -26.992188 41.734375 -29.1875 40.140625 -30.53125 C 38.546875 -31.882812 35.953125 -32.5625 32.359375 -32.5625 L 20.640625 -32.5625 L 20.640625 -8.8125 C 20.640625 -7.019531 20.847656 -5.671875 21.265625 -4.765625 C 21.679688 -3.867188 22.40625 -3.226562 23.4375 -2.84375 C 24.476562 -2.46875 26.070312 -2.28125 28.21875 -2.28125 L 35.578125 -2.28125 C 39.242188 -2.28125 42.285156 -3.4375 44.703125 -5.75 C 47.117188 -8.070312 48.78125 -11.34375 49.6875 -15.5625 Z M 49.6875 -15.5625 "/></g></g></g><g fill="#ffffff" fill-opacity="1"><g transform="translate(259.788373, 225.533364)"><g><path d="M 19.703125 -8.8125 C 19.703125 -6.875 19.890625 -5.457031 20.265625 -4.5625 C 20.648438 -3.664062 21.378906 -3.0625 22.453125 -2.75 C 23.523438 -2.4375 25.238281 -2.28125 27.59375 -2.28125 L 37.546875 -2.28125 C 41.691406 -2.28125 45.09375 -3.539062 47.75 -6.0625 C 50.414062 -8.59375 52.164062 -12.035156 53 -16.390625 C 53 -16.597656 53.1875 -16.679688 53.5625 -16.640625 C 53.945312 -16.609375 54.140625 -16.488281 54.140625 -16.28125 C 53.515625 -10.40625 53.203125 -5.5 53.203125 -1.5625 C 53.203125 -1 53.097656 -0.597656 52.890625 -0.359375 C 52.679688 -0.117188 52.269531 0 51.65625 0 L 3.53125 0 C 3.382812 0 3.3125 -0.207031 3.3125 -0.625 C 3.3125 -1.039062 3.382812 -1.25 3.53125 -1.25 C 6.082031 -1.25 7.945312 -1.421875 9.125 -1.765625 C 10.300781 -2.109375 11.097656 -2.78125 11.515625 -3.78125 C 11.929688 -4.789062 12.140625 -6.332031 12.140625 -8.40625 L 12.140625 -56.421875 C 12.140625 -58.492188 11.929688 -60.015625 11.515625 -60.984375 C 11.097656 -61.953125 10.300781 -62.625 9.125 -63 C 7.945312 -63.382812 6.082031 -63.578125 3.53125 -63.578125 C 3.382812 -63.578125 3.3125 -63.785156 3.3125 -64.203125 C 3.3125 -64.617188 3.382812 -64.828125 3.53125 -64.828125 L 8.71875 -64.71875 C 11.613281 -64.582031 14 -64.515625 15.875 -64.515625 C 17.875 -64.515625 20.328125 -64.582031 23.234375 -64.71875 L 28.3125 -64.828125 C 28.445312 -64.828125 28.515625 -64.617188 28.515625 -64.203125 C 28.515625 -63.785156 28.445312 -63.578125 28.3125 -63.578125 C 25.820312 -63.578125 23.972656 -63.382812 22.765625 -63 C 21.554688 -62.625 20.742188 -61.9375 20.328125 -60.9375 C 19.910156 -59.9375 19.703125 -58.394531 19.703125 -56.3125 Z M 19.703125 -8.8125 "/></g></g></g><g clip-path="url(#3a29c22c63)"><path fill="#000000" d="M 28.769531 174.640625 L 346.394531 174.640625 L 346.394531 211.441406 L 28.769531 211.441406 Z M 28.769531 174.640625 " fill-opacity="1" fill-rule="nonzero"/></g><g fill="#ffffff" fill-opacity="1"><g transform="translate(131.852797, 199.490963)"><g><path d="M 23.542969 -6.753906 C 23.253906 -6.871094 22.933594 -6.753906 22.820312 -6.464844 C 19.511719 0.550781 16.324219 5.710938 13.308594 8.871094 C 10.757812 11.539062 8.464844 12.640625 6.640625 12.089844 C 4.988281 11.570312 3.710938 9.625 3.074219 6.609375 C 2.347656 3.363281 2.378906 -0.8125 3.132812 -5.449219 C 4.203125 -12.0625 7.308594 -21.425781 10.929688 -25.777344 C 12.003906 -27.050781 12.933594 -27.660156 13.484375 -27.371094 C 14.84375 -26.703125 15.394531 -21.167969 12.410156 -7.742188 C 12.324219 -7.453125 12.527344 -7.160156 12.816406 -7.074219 C 13.132812 -7.015625 13.425781 -7.21875 13.484375 -7.507812 C 15.425781 -16.179688 17.078125 -26.847656 13.976562 -28.386719 C 13.222656 -28.761719 11.945312 -28.734375 10.089844 -26.5 C 7.769531 -23.71875 6.003906 -19.570312 4.929688 -16.554688 C 3.625 -12.988281 2.582031 -8.988281 2.03125 -5.625 C 0.40625 4.320312 2.144531 11.859375 6.320312 13.164062 C 6.726562 13.28125 7.160156 13.335938 7.597656 13.335938 C 12.179688 13.335938 18.007812 6.4375 23.804688 -6.003906 C 23.949219 -6.292969 23.832031 -6.609375 23.542969 -6.753906 Z M 23.542969 -6.753906 "/></g></g></g><g fill="#ffffff" fill-opacity="1"><g transform="translate(154.234762, 199.490963)"><g><path d="M 10.496094 -6.292969 C 10.234375 -6.496094 9.886719 -6.4375 9.714844 -6.203125 C 8.496094 -4.640625 6.496094 -3.335938 4.957031 -3.625 C 4.988281 -3.828125 5.015625 -4.03125 5.015625 -4.234375 C 5.21875 -7.507812 4.203125 -8.175781 3.59375 -8.292969 C 2.898438 -8.4375 2.175781 -7.914062 1.828125 -7.046875 C 1.683594 -7.105469 1.507812 -7.105469 1.363281 -6.988281 C 0.203125 -6.261719 -0.753906 -4.40625 -0.230469 -2.40625 C 0.117188 -1.21875 0.929688 -0.464844 2 -0.464844 C 3.015625 -0.464844 4.089844 -1.21875 4.640625 -2.550781 C 6.667969 -2.117188 9.105469 -3.625 10.582031 -5.507812 C 10.785156 -5.769531 10.726562 -6.117188 10.496094 -6.292969 Z M 2.03125 -1.566406 C 2 -1.566406 2 -1.566406 2 -1.566406 C 1.277344 -1.59375 0.957031 -2.289062 0.871094 -2.695312 C 0.578125 -3.683594 0.8125 -5.046875 1.625 -5.800781 C 1.683594 -4.8125 2.234375 -3.742188 3.625 -2.988281 C 3.21875 -2.058594 2.523438 -1.566406 2.03125 -1.566406 Z M 3.914062 -4.292969 C 3.886719 -4.234375 3.886719 -4.175781 3.886719 -4.117188 C 2.785156 -4.84375 2.609375 -5.769531 2.8125 -6.496094 C 2.957031 -6.957031 3.246094 -7.191406 3.390625 -7.191406 C 3.539062 -7.160156 4.03125 -6.609375 3.914062 -4.292969 Z M 3.914062 -4.292969 "/></g></g></g><g fill="#ffffff" fill-opacity="1"><g transform="translate(163.512257, 199.490963)"><g><path d="M 11.65625 -6.464844 C 11.394531 -6.609375 11.046875 -6.523438 10.902344 -6.234375 C 10.207031 -5.046875 8.378906 -1.828125 7.335938 -1.941406 C 7.132812 -1.972656 6.554688 -2.261719 5.972656 -4.292969 C 5.566406 -5.710938 5.015625 -7.046875 3.941406 -7.105469 C 3.160156 -7.160156 2.289062 -6.554688 0.957031 -4.058594 C 1.304688 -5.304688 1.683594 -6.554688 1.972656 -7.566406 C 2.085938 -7.945312 2.175781 -8.261719 2.261719 -8.582031 C 2.347656 -8.871094 2.175781 -9.191406 1.882812 -9.277344 C 1.59375 -9.367188 1.277344 -9.191406 1.1875 -8.871094 C 1.101562 -8.582031 1.015625 -8.234375 0.898438 -7.886719 C 0.144531 -5.304688 -0.984375 -1.390625 -1.277344 0.984375 C -1.304688 1.246094 -1.128906 1.507812 -0.871094 1.566406 C -0.8125 1.59375 -0.78125 1.59375 -0.726562 1.59375 C -0.492188 1.59375 -0.289062 1.449219 -0.203125 1.246094 C 2.523438 -5.539062 3.625 -6.003906 3.886719 -6.003906 C 3.941406 -6.003906 4.347656 -5.886719 4.898438 -3.972656 C 5.480469 -1.972656 6.234375 -0.957031 7.21875 -0.839844 C 8.699219 -0.667969 10.03125 -2.492188 11.859375 -5.683594 C 12.03125 -5.972656 11.917969 -6.292969 11.65625 -6.464844 Z M 11.65625 -6.464844 "/></g></g></g><g fill="#ffffff" fill-opacity="1"><g transform="translate(173.862465, 199.490963)"><g><path d="M 12.902344 -6.640625 C 12.671875 -6.84375 12.324219 -6.8125 12.121094 -6.582031 C 9.828125 -3.941406 6.234375 0.261719 5.652344 1.015625 C 5.480469 1.21875 5.304688 1.449219 5.132812 1.683594 C 4.898438 1.101562 4.609375 0.550781 4.234375 -0.0273438 C 2.839844 -2.175781 1.59375 -4.203125 1.652344 -5.625 C 1.710938 -6.753906 2.289062 -7.742188 3.246094 -8.320312 C 4.03125 -8.785156 4.898438 -8.871094 5.566406 -8.554688 C 5.828125 -8.4375 6.175781 -8.554688 6.292969 -8.84375 C 6.4375 -9.105469 6.320312 -9.453125 6.03125 -9.566406 C 5.046875 -10.03125 3.769531 -9.917969 2.667969 -9.277344 C 1.390625 -8.496094 0.636719 -7.191406 0.550781 -5.683594 C 0.464844 -3.914062 1.738281 -1.796875 3.304688 0.578125 C 3.796875 1.332031 4.117188 2.058594 4.320312 2.753906 C 2.058594 5.828125 -0.375 9.769531 0.871094 10.988281 C 1.074219 11.191406 1.332031 11.277344 1.59375 11.277344 C 2.058594 11.277344 2.582031 11.046875 3.132812 10.613281 C 4.695312 9.308594 6.320312 6.351562 5.539062 2.988281 C 5.855469 2.582031 6.175781 2.144531 6.523438 1.710938 C 7.105469 0.984375 10.699219 -3.21875 12.960938 -5.855469 C 13.164062 -6.089844 13.132812 -6.4375 12.902344 -6.640625 Z M 3.480469 8.523438 C 2.695312 9.683594 1.914062 10.148438 1.652344 10.175781 C 1.535156 9.769531 1.914062 8.089844 4.609375 4.261719 C 4.726562 6.351562 3.855469 7.945312 3.480469 8.523438 Z M 3.480469 8.523438 "/></g></g></g><g fill="#ffffff" fill-opacity="1"><g transform="translate(185.54631, 199.490963)"><g><path d="M 11.539062 -6.261719 C 11.277344 -6.40625 10.929688 -6.320312 10.785156 -6.058594 C 8.03125 -1.652344 5.710938 0.320312 5.21875 0.144531 C 5.21875 0.144531 4.640625 -0.175781 5.191406 -3.507812 C 5.394531 -4.640625 5.480469 -5.277344 4.929688 -5.507812 C 4.40625 -5.710938 4.089844 -5.277344 3.480469 -4.40625 C 2.988281 -3.710938 2.320312 -2.785156 1.59375 -2.144531 C 1.507812 -2.085938 1.1875 -1.796875 1.042969 -1.914062 C 0.609375 -2.261719 0.523438 -4.144531 1.535156 -5.886719 C 1.710938 -6.148438 1.59375 -6.496094 1.332031 -6.667969 C 1.074219 -6.8125 0.726562 -6.726562 0.578125 -6.464844 C -0.578125 -4.4375 -0.695312 -1.914062 0.320312 -1.074219 C 0.578125 -0.839844 1.304688 -0.433594 2.320312 -1.277344 C 2.988281 -1.855469 3.566406 -2.609375 4.03125 -3.246094 C 3.625 -0.550781 3.855469 0.8125 4.8125 1.1875 C 4.957031 1.246094 5.101562 1.246094 5.21875 1.246094 C 7.421875 1.246094 10.988281 -4.320312 11.714844 -5.480469 C 11.886719 -5.742188 11.800781 -6.089844 11.539062 -6.261719 Z M 11.539062 -6.261719 "/></g></g></g><g fill="#ffffff" fill-opacity="1"><g transform="translate(195.925505, 199.490963)"><g><path d="M 8.523438 -27.167969 C 8.320312 -27.429688 8.03125 -27.546875 7.742188 -27.515625 C 6.089844 -27.226562 4.320312 -21.050781 3.828125 -19.164062 C 2.378906 -13.628906 0.550781 -5.769531 -0.929688 1.277344 C -1.625 4.609375 -2.175781 7.421875 -2.523438 9.453125 C -3.101562 12.875 -3.015625 13.308594 -2.464844 13.453125 C -2.40625 13.484375 -2.347656 13.484375 -2.289062 13.484375 C -1.769531 13.484375 -1.507812 12.785156 -1.246094 12.03125 C -1.160156 11.742188 -1.304688 11.425781 -1.59375 11.335938 C -1.625 11.308594 -1.652344 11.308594 -1.683594 11.308594 C -1.074219 7.132812 1.421875 -5.015625 3.972656 -15.195312 C 3.972656 -15.222656 4 -15.25 4.03125 -15.28125 C 7.800781 -21.253906 9.277344 -26.007812 8.523438 -27.167969 Z M 4.957031 -19.109375 C 6.058594 -23.195312 7.046875 -25.167969 7.566406 -25.980469 C 7.453125 -24.90625 6.8125 -22.585938 4.957031 -19.109375 Z M 4.957031 -19.109375 "/></g></g></g><g fill="#ffffff" fill-opacity="1"><g transform="translate(200.332316, 199.490963)"><g><path d="M 24.472656 -17.105469 C 24.09375 -17.628906 22.414062 -17.949219 4.40625 -17.542969 C 4.988281 -19.890625 5.507812 -22.007812 5.972656 -23.71875 C 6.058594 -24.035156 5.886719 -24.328125 5.597656 -24.414062 C 5.304688 -24.5 4.988281 -24.328125 4.898438 -24.035156 C 4.40625 -22.210938 3.855469 -20.007812 3.246094 -17.511719 C 1.652344 -17.484375 -0.0859375 -17.453125 -1.972656 -17.398438 C -4.550781 -17.339844 -6.582031 -17.28125 -7.363281 -17.28125 C -7.683594 -17.28125 -7.945312 -17.019531 -7.945312 -16.730469 C -7.945312 -16.410156 -7.683594 -16.148438 -7.363281 -16.148438 C -6.554688 -16.179688 -4.523438 -16.207031 -1.941406 -16.296875 C -0.578125 -16.324219 1.101562 -16.351562 2.988281 -16.410156 C 1.738281 -11.132812 0.320312 -4.8125 -0.957031 1.363281 C -1.882812 5.886719 -2.636719 9.800781 -3.132812 12.671875 C -3.390625 14.179688 -3.566406 15.367188 -3.652344 16.179688 C -3.769531 17.28125 -3.828125 17.917969 -3.277344 18.121094 C -3.1875 18.121094 -3.132812 18.152344 -3.042969 18.152344 C -2.550781 18.152344 -2.289062 17.453125 -2.058594 16.816406 C -1.941406 16.527344 -2.085938 16.207031 -2.378906 16.09375 C -2.4375 16.09375 -2.464844 16.0625 -2.523438 16.0625 C -2.234375 13.800781 -1.363281 8.726562 0.320312 0.726562 C 1.566406 -5.335938 2.929688 -11.394531 4.144531 -16.441406 C 12.121094 -16.613281 22.472656 -16.757812 23.660156 -16.351562 C 23.863281 -16.179688 24.125 -16.179688 24.355469 -16.324219 C 24.585938 -16.5 24.644531 -16.847656 24.472656 -17.105469 Z M 24.472656 -17.105469 "/></g></g></g><g fill="#ffffff" fill-opacity="1"><g transform="translate(204.188276, 199.490963)"><g><path d="M 10.496094 -6.292969 C 10.234375 -6.496094 9.886719 -6.4375 9.714844 -6.203125 C 8.496094 -4.640625 6.496094 -3.335938 4.957031 -3.625 C 4.988281 -3.828125 5.015625 -4.03125 5.015625 -4.234375 C 5.21875 -7.507812 4.203125 -8.175781 3.59375 -8.292969 C 2.898438 -8.4375 2.175781 -7.914062 1.828125 -7.046875 C 1.683594 -7.105469 1.507812 -7.105469 1.363281 -6.988281 C 0.203125 -6.261719 -0.753906 -4.40625 -0.230469 -2.40625 C 0.117188 -1.21875 0.929688 -0.464844 2 -0.464844 C 3.015625 -0.464844 4.089844 -1.21875 4.640625 -2.550781 C 6.667969 -2.117188 9.105469 -3.625 10.582031 -5.507812 C 10.785156 -5.769531 10.726562 -6.117188 10.496094 -6.292969 Z M 2.03125 -1.566406 C 2 -1.566406 2 -1.566406 2 -1.566406 C 1.277344 -1.59375 0.957031 -2.289062 0.871094 -2.695312 C 0.578125 -3.683594 0.8125 -5.046875 1.625 -5.800781 C 1.683594 -4.8125 2.234375 -3.742188 3.625 -2.988281 C 3.21875 -2.058594 2.523438 -1.566406 2.03125 -1.566406 Z M 3.914062 -4.292969 C 3.886719 -4.234375 3.886719 -4.175781 3.886719 -4.117188 C 2.785156 -4.84375 2.609375 -5.769531 2.8125 -6.496094 C 2.957031 -6.957031 3.246094 -7.191406 3.390625 -7.191406 C 3.539062 -7.160156 4.03125 -6.609375 3.914062 -4.292969 Z M 3.914062 -4.292969 "/></g></g></g><g fill="#ffffff" fill-opacity="1"><g transform="translate(213.465772, 199.490963)"><g><path d="M 12.730469 -6.554688 C 12.4375 -6.699219 12.089844 -6.582031 11.976562 -6.292969 C 8.640625 0.726562 5.480469 4.320312 4.785156 4.203125 C 4.726562 4.175781 3.710938 3.1875 6.988281 -6.871094 C 7.074219 -7.132812 7.277344 -7.742188 6.8125 -8.0625 C 6.378906 -8.410156 5.886719 -8.089844 5.074219 -7.539062 C 4.203125 -6.988281 3.015625 -6.203125 2.085938 -6.320312 C 5.046875 -11.425781 4.753906 -12.554688 4.089844 -12.988281 C 3.042969 -13.597656 1.535156 -11.828125 0.839844 -10.816406 C -0.578125 -8.613281 -0.550781 -6.609375 0.957031 -5.597656 C 2.492188 -4.523438 4.496094 -5.828125 5.683594 -6.609375 C 5.710938 -6.640625 5.710938 -6.640625 5.742188 -6.667969 C 4.609375 -3.101562 3.886719 -0.289062 3.625 1.652344 C 3.304688 3.796875 3.539062 4.929688 4.347656 5.25 C 4.496094 5.277344 4.609375 5.304688 4.753906 5.304688 C 7.074219 5.304688 11.105469 -1.828125 12.988281 -5.800781 C 13.105469 -6.089844 12.988281 -6.4375 12.730469 -6.554688 Z M 1.015625 -8.554688 C 1.421875 -10.121094 2.785156 -11.570312 3.390625 -11.917969 C 3.335938 -11.453125 3.015625 -10.148438 1.160156 -6.929688 C 0.957031 -7.25 0.8125 -7.742188 1.015625 -8.554688 Z M 1.015625 -8.554688 "/></g></g></g><g fill="#ffffff" fill-opacity="1"><g transform="translate(225.033654, 199.490963)"><g><path d="M 8.464844 -6.582031 C 8.207031 -6.753906 7.886719 -6.667969 7.710938 -6.40625 C 5.769531 -3.277344 2.523438 -0.320312 1.535156 -0.726562 C 1.421875 -0.78125 0.492188 -1.332031 1.769531 -6.234375 C 1.828125 -6.554688 1.652344 -6.84375 1.363281 -6.929688 C 1.042969 -6.988281 0.753906 -6.8125 0.667969 -6.523438 C -0.375 -2.4375 -0.230469 -0.261719 1.074219 0.289062 C 1.277344 0.375 1.480469 0.40625 1.683594 0.40625 C 3.855469 0.40625 7.191406 -3.480469 8.667969 -5.828125 C 8.816406 -6.089844 8.726562 -6.4375 8.464844 -6.582031 Z M 1.625 -8.929688 C 3.101562 -8.84375 3.074219 -10.699219 1.882812 -10.292969 C 1.277344 -10.121094 0.492188 -8.988281 1.625 -8.929688 Z M 1.625 -8.929688 "/></g></g></g><g fill="#ffffff" fill-opacity="1"><g transform="translate(232.368675, 199.490963)"><g><path d="M 12.121094 -6.4375 C 11.859375 -6.554688 11.511719 -6.4375 11.394531 -6.175781 C 9.191406 -1.683594 7.539062 -0.261719 6.753906 -0.40625 C 6.4375 -0.464844 5.394531 -1.074219 5.132812 -6.148438 C 5.132812 -6.378906 4.957031 -6.582031 4.753906 -6.640625 C 4.523438 -6.699219 4.261719 -6.640625 4.144531 -6.4375 C 3.972656 -6.234375 3.796875 -6.003906 3.625 -5.742188 C 2.898438 -4.753906 1.941406 -3.421875 0.78125 -2.175781 C 0.609375 -1.972656 0.464844 -1.855469 0.375 -1.796875 C 0.175781 -2.8125 1.246094 -6.699219 2.957031 -7.914062 C 3.449219 -8.261719 4.117188 -8.523438 5.015625 -7.480469 C 5.21875 -7.25 5.566406 -7.21875 5.800781 -7.421875 C 6.03125 -7.597656 6.058594 -7.972656 5.886719 -8.207031 C 4.785156 -9.480469 3.742188 -9.453125 3.042969 -9.21875 C 0.8125 -8.4375 -0.695312 -4.144531 -0.753906 -2.175781 C -0.78125 -1.363281 -0.550781 -0.839844 -0.0859375 -0.667969 C 0.636719 -0.375 1.363281 -1.160156 1.59375 -1.421875 C 2.582031 -2.492188 3.480469 -3.652344 4.117188 -4.550781 C 4.4375 -1.246094 5.21875 0.40625 6.523438 0.695312 C 6.640625 0.695312 6.753906 0.726562 6.871094 0.726562 C 8.84375 0.726562 10.960938 -2.726562 12.382812 -5.683594 C 12.527344 -5.972656 12.410156 -6.292969 12.121094 -6.4375 Z M 12.121094 -6.4375 "/></g></g></g></svg>