<svg xmlns="http://www.w3.org/2000/svg" xmlns:xlink="http://www.w3.org/1999/xlink" width="500" zoomAndPan="magnify" viewBox="0 0 375 374.999991" height="500" preserveAspectRatio="xMidYMid meet" version="1.0"><defs><clipPath id="f98b4ada59"><path d="M 50.996094 50.996094 L 323.996094 50.996094 L 323.996094 323.996094 L 50.996094 323.996094 Z M 50.996094 50.996094 " clip-rule="nonzero"/></clipPath><clipPath id="2adc916127"><path d="M 71.941406 178.132812 L 303.050781 178.132812 L 303.050781 204.855469 L 71.941406 204.855469 Z M 71.941406 178.132812 " clip-rule="nonzero"/></clipPath></defs><g clip-path="url(#f98b4ada59)"><path fill="#ffffff" d="M 23.695312 23.695312 L 351.296875 23.695312 L 351.296875 351.296875 L 23.695312 351.296875 Z M 23.695312 23.695312 " fill-opacity="1" fill-rule="nonzero"/><path fill="#ffffff" d="M 23.695312 23.695312 L 351.296875 23.695312 L 351.296875 351.296875 L 23.695312 351.296875 Z M 23.695312 23.695312 " fill-opacity="1" fill-rule="nonzero"/><path fill="#ffffff" d="M 23.695312 23.695312 L 351.296875 23.695312 L 351.296875 351.296875 L 23.695312 351.296875 Z M 23.695312 23.695312 " fill-opacity="1" fill-rule="nonzero"/></g><path fill="#2b2b2b" d="M 125.734375 167.125 C 128.75 167.125 131.355469 167.339844 133.550781 167.773438 C 135.738281 168.199219 137.894531 168.914062 140.011719 169.921875 C 140.355469 170.121094 140.570312 170.308594 140.648438 170.492188 C 140.722656 170.667969 140.785156 171.058594 140.839844 171.664062 L 141.820312 180.863281 C 141.820312 181.019531 141.675781 181.121094 141.398438 181.171875 C 141.125 181.226562 140.960938 181.148438 140.910156 180.945312 C 138.441406 172.535156 133.234375 168.328125 125.28125 168.328125 C 121.207031 168.328125 117.605469 169.261719 114.484375 171.128906 C 111.367188 172.992188 108.9375 175.652344 107.191406 179.101562 C 105.457031 182.546875 104.589844 186.558594 104.589844 191.136719 C 104.589844 195.566406 105.53125 199.59375 107.421875 203.21875 C 109.308594 206.84375 111.863281 209.6875 115.085938 211.75 C 118.308594 213.8125 121.832031 214.84375 125.65625 214.84375 C 129.636719 214.84375 132.894531 213.851562 135.4375 211.863281 C 137.976562 209.878906 140 206.792969 141.511719 202.613281 C 141.5625 202.464844 141.714844 202.414062 141.964844 202.464844 C 142.21875 202.511719 142.34375 202.589844 142.34375 202.695312 L 141.589844 211.144531 C 141.492188 211.753906 141.402344 212.144531 141.328125 212.316406 C 141.253906 212.492188 141.035156 212.679688 140.679688 212.886719 C 138.117188 214.089844 135.675781 214.933594 133.355469 215.410156 C 131.039062 215.886719 128.453125 216.128906 125.585938 216.128906 C 120.300781 216.128906 115.578125 215.085938 111.425781 213 C 107.277344 210.90625 104.03125 207.988281 101.6875 204.242188 C 99.34375 200.488281 98.171875 196.195312 98.171875 191.363281 C 98.171875 186.632812 99.355469 182.433594 101.722656 178.761719 C 104.089844 175.082031 107.371094 172.226562 111.574219 170.183594 C 115.78125 168.144531 120.503906 167.125 125.734375 167.125 Z M 125.734375 167.125 " fill-opacity="1" fill-rule="nonzero"/><path fill="#2b2b2b" d="M 199.203125 214.238281 C 199.398438 214.238281 199.496094 214.394531 199.496094 214.695312 C 199.496094 215 199.398438 215.148438 199.203125 215.148438 C 198.246094 215.148438 196.757812 215.101562 194.742188 215 C 192.734375 214.894531 191.25 214.84375 190.296875 214.84375 C 189.136719 214.84375 187.695312 214.894531 185.984375 215 C 184.375 215.101562 183.117188 215.148438 182.207031 215.148438 C 182.007812 215.148438 181.910156 215 181.910156 214.695312 C 181.910156 214.394531 182.007812 214.238281 182.207031 214.238281 C 184.019531 214.238281 185.316406 214.078125 186.097656 213.75 C 186.878906 213.425781 187.269531 212.835938 187.269531 211.976562 C 187.269531 211.226562 186.917969 210.09375 186.210938 208.574219 L 179.714844 194.992188 L 161.675781 194.992188 L 157.21875 205.332031 C 156.5625 206.84375 156.238281 208.226562 156.238281 209.484375 C 156.238281 212.65625 158.679688 214.238281 163.5625 214.238281 C 163.816406 214.238281 163.941406 214.394531 163.941406 214.695312 C 163.941406 215 163.816406 215.148438 163.5625 215.148438 C 162.652344 215.148438 161.347656 215.101562 159.640625 215 C 157.71875 214.894531 156.058594 214.84375 154.644531 214.84375 C 153.394531 214.84375 151.863281 214.894531 150.050781 215 C 148.53125 215.101562 147.246094 215.148438 146.195312 215.148438 C 145.945312 215.148438 145.820312 215 145.820312 214.695312 C 145.820312 214.394531 145.945312 214.238281 146.195312 214.238281 C 147.605469 214.238281 148.800781 213.976562 149.777344 213.453125 C 150.761719 212.925781 151.707031 211.980469 152.609375 210.621094 C 153.519531 209.257812 154.527344 207.265625 155.636719 204.648438 L 171.5625 167.351562 C 171.667969 167.199219 171.867188 167.125 172.164062 167.125 C 172.464844 167.125 172.644531 167.199219 172.699219 167.351562 L 190.671875 204.808594 C 192.378906 208.480469 193.832031 210.972656 195.039062 212.28125 C 196.25 213.589844 197.636719 214.238281 199.203125 214.238281 Z M 162.359375 193.398438 L 178.964844 193.398438 L 170.207031 175.132812 Z M 162.359375 193.398438 " fill-opacity="1" fill-rule="nonzero"/><path fill="#2b2b2b" d="M 235.519531 203.820312 C 235.519531 203.667969 235.667969 203.609375 235.964844 203.636719 C 236.265625 203.660156 236.417969 203.75 236.417969 203.898438 C 235.96875 207.167969 235.746094 210.539062 235.746094 214.011719 C 235.746094 214.421875 235.65625 214.714844 235.472656 214.886719 C 235.296875 215.0625 234.984375 215.148438 234.53125 215.148438 L 202.589844 215.148438 C 202.488281 215.148438 202.441406 215 202.441406 214.695312 C 202.441406 214.394531 202.488281 214.238281 202.589844 214.238281 C 204.453125 214.238281 205.8125 214.113281 206.671875 213.863281 C 207.527344 213.613281 208.105469 213.125 208.402344 212.398438 C 208.703125 211.664062 208.855469 210.539062 208.855469 209.03125 L 208.855469 174.074219 C 208.855469 172.566406 208.703125 171.457031 208.402344 170.753906 C 208.105469 170.046875 207.527344 169.558594 206.671875 169.285156 C 205.8125 169.007812 204.453125 168.863281 202.589844 168.863281 C 202.488281 168.863281 202.441406 168.714844 202.441406 168.410156 C 202.441406 168.109375 202.488281 167.953125 202.589844 167.953125 L 233.246094 167.953125 C 233.699219 167.953125 233.925781 168.183594 233.925781 168.636719 L 234.074219 178.078125 C 234.074219 178.230469 233.933594 178.304688 233.65625 178.304688 C 233.382812 178.304688 233.246094 178.230469 233.246094 178.078125 C 232.949219 175.355469 232.019531 173.265625 230.457031 171.808594 C 228.894531 170.347656 226.855469 169.613281 224.339844 169.613281 L 220.1875 169.613281 C 217.820312 169.613281 216.257812 169.945312 215.5 170.605469 C 214.75 171.257812 214.375 172.511719 214.375 174.371094 L 214.375 189.78125 L 223.054688 189.78125 C 225.570312 189.78125 227.390625 189.355469 228.523438 188.496094 C 229.660156 187.640625 230.230469 186.257812 230.230469 184.347656 C 230.230469 184.242188 230.382812 184.1875 230.683594 184.1875 C 230.988281 184.1875 231.140625 184.242188 231.140625 184.347656 L 231.0625 190.613281 C 231.0625 192.070312 231.085938 193.179688 231.140625 193.933594 L 231.207031 197.710938 C 231.207031 197.8125 231.054688 197.859375 230.753906 197.859375 C 230.457031 197.859375 230.308594 197.8125 230.308594 197.710938 C 230.308594 195.5 229.730469 193.902344 228.570312 192.921875 C 227.410156 191.9375 225.519531 191.445312 222.90625 191.445312 L 214.375 191.445312 L 214.375 208.734375 C 214.375 210.039062 214.523438 211.019531 214.828125 211.679688 C 215.128906 212.332031 215.660156 212.800781 216.410156 213.078125 C 217.167969 213.351562 218.328125 213.488281 219.890625 213.488281 L 225.25 213.488281 C 227.914062 213.488281 230.132812 212.648438 231.890625 210.964844 C 233.648438 209.273438 234.859375 206.890625 235.519531 203.820312 Z M 235.519531 203.820312 " fill-opacity="1" fill-rule="nonzero"/><path fill="#2b2b2b" d="M 254.460938 208.734375 C 254.460938 210.144531 254.597656 211.175781 254.871094 211.828125 C 255.148438 212.480469 255.679688 212.917969 256.464844 213.148438 C 257.242188 213.375 258.492188 213.488281 260.207031 213.488281 L 267.453125 213.488281 C 270.46875 213.488281 272.945312 212.574219 274.878906 210.734375 C 276.820312 208.894531 278.09375 206.386719 278.703125 203.21875 C 278.703125 203.066406 278.839844 203.007812 279.109375 203.035156 C 279.390625 203.058594 279.53125 203.144531 279.53125 203.296875 C 279.078125 207.574219 278.847656 211.144531 278.847656 214.011719 C 278.847656 214.421875 278.773438 214.714844 278.621094 214.886719 C 278.46875 215.0625 278.167969 215.148438 277.722656 215.148438 L 242.6875 215.148438 C 242.582031 215.148438 242.527344 215 242.527344 214.695312 C 242.527344 214.394531 242.582031 214.238281 242.6875 214.238281 C 244.546875 214.238281 245.902344 214.113281 246.761719 213.863281 C 247.617188 213.613281 248.195312 213.125 248.5 212.398438 C 248.800781 211.664062 248.957031 210.539062 248.957031 209.03125 L 248.957031 174.074219 C 248.957031 172.566406 248.800781 171.457031 248.5 170.753906 C 248.195312 170.046875 247.617188 169.558594 246.761719 169.285156 C 245.902344 169.007812 244.546875 168.863281 242.6875 168.863281 C 242.582031 168.863281 242.527344 168.714844 242.527344 168.410156 C 242.527344 168.109375 242.582031 167.953125 242.6875 167.953125 L 246.464844 168.035156 C 248.570312 168.132812 250.308594 168.183594 251.675781 168.183594 C 253.128906 168.183594 254.917969 168.132812 257.03125 168.035156 L 260.730469 167.953125 C 260.824219 167.953125 260.875 168.109375 260.875 168.410156 C 260.875 168.714844 260.824219 168.863281 260.730469 168.863281 C 258.914062 168.863281 257.570312 169.007812 256.691406 169.285156 C 255.808594 169.558594 255.21875 170.058594 254.917969 170.785156 C 254.613281 171.515625 254.460938 172.636719 254.460938 174.152344 Z M 254.460938 208.734375 " fill-opacity="1" fill-rule="nonzero"/><g clip-path="url(#2adc916127)"><path fill="#ffffff" d="M 71.941406 178.132812 L 303.171875 178.132812 L 303.171875 204.925781 L 71.941406 204.925781 Z M 71.941406 178.132812 " fill-opacity="1" fill-rule="nonzero"/></g><path fill="#000000" d="M 169.53125 191.308594 C 169.324219 191.222656 169.089844 191.308594 169.007812 191.519531 C 166.597656 196.625 164.277344 200.382812 162.082031 202.683594 C 160.226562 204.625 158.554688 205.429688 157.226562 205.027344 C 156.023438 204.648438 155.09375 203.234375 154.632812 201.039062 C 154.101562 198.675781 154.125 195.632812 154.675781 192.257812 C 155.453125 187.445312 157.714844 180.628906 160.351562 177.460938 C 161.132812 176.53125 161.808594 176.089844 162.210938 176.300781 C 163.199219 176.785156 163.601562 180.816406 161.429688 190.589844 C 161.367188 190.800781 161.511719 191.011719 161.722656 191.074219 C 161.953125 191.117188 162.167969 190.96875 162.210938 190.761719 C 163.625 184.445312 164.828125 176.679688 162.570312 175.558594 C 162.019531 175.289062 161.089844 175.308594 159.738281 176.933594 C 158.050781 178.957031 156.765625 181.976562 155.980469 184.175781 C 155.03125 186.769531 154.273438 189.683594 153.871094 192.128906 C 152.6875 199.371094 153.953125 204.859375 156.996094 205.808594 C 157.289062 205.894531 157.605469 205.933594 157.925781 205.933594 C 161.261719 205.933594 165.503906 200.914062 169.722656 191.855469 C 169.828125 191.644531 169.742188 191.414062 169.53125 191.308594 Z M 169.53125 191.308594 " fill-opacity="1" fill-rule="nonzero"/><path fill="#000000" d="M 176.328125 191.644531 C 176.136719 191.496094 175.886719 191.539062 175.761719 191.710938 C 174.871094 192.847656 173.417969 193.796875 172.296875 193.585938 C 172.320312 193.4375 172.339844 193.289062 172.339844 193.144531 C 172.488281 190.761719 171.746094 190.273438 171.304688 190.1875 C 170.796875 190.082031 170.273438 190.464844 170.019531 191.09375 C 169.914062 191.054688 169.785156 191.054688 169.679688 191.136719 C 168.835938 191.667969 168.140625 193.019531 168.519531 194.472656 C 168.773438 195.339844 169.363281 195.886719 170.144531 195.886719 C 170.882812 195.886719 171.664062 195.339844 172.066406 194.367188 C 173.542969 194.683594 175.316406 193.585938 176.390625 192.214844 C 176.539062 192.027344 176.496094 191.773438 176.328125 191.644531 Z M 170.167969 195.085938 C 170.144531 195.085938 170.144531 195.085938 170.144531 195.085938 C 169.617188 195.066406 169.382812 194.558594 169.320312 194.261719 C 169.109375 193.542969 169.277344 192.550781 169.871094 192.003906 C 169.914062 192.722656 170.3125 193.5 171.328125 194.050781 C 171.03125 194.726562 170.523438 195.085938 170.167969 195.085938 Z M 171.535156 193.101562 C 171.515625 193.144531 171.515625 193.1875 171.515625 193.226562 C 170.714844 192.699219 170.585938 192.027344 170.734375 191.496094 C 170.839844 191.160156 171.050781 190.992188 171.15625 190.992188 C 171.265625 191.011719 171.621094 191.414062 171.535156 193.101562 Z M 171.535156 193.101562 " fill-opacity="1" fill-rule="nonzero"/><path fill="#000000" d="M 183.925781 191.519531 C 183.738281 191.414062 183.484375 191.476562 183.378906 191.6875 C 182.871094 192.550781 181.542969 194.894531 180.78125 194.8125 C 180.632812 194.789062 180.214844 194.578125 179.789062 193.101562 C 179.492188 192.066406 179.09375 191.09375 178.3125 191.054688 C 177.742188 191.011719 177.109375 191.453125 176.136719 193.269531 C 176.390625 192.363281 176.667969 191.453125 176.878906 190.71875 C 176.960938 190.441406 177.023438 190.210938 177.085938 189.976562 C 177.148438 189.765625 177.023438 189.535156 176.8125 189.472656 C 176.601562 189.40625 176.371094 189.535156 176.304688 189.765625 C 176.242188 189.976562 176.179688 190.230469 176.09375 190.484375 C 175.546875 192.363281 174.726562 195.214844 174.511719 196.941406 C 174.492188 197.132812 174.621094 197.324219 174.808594 197.367188 C 174.851562 197.386719 174.871094 197.386719 174.914062 197.386719 C 175.082031 197.386719 175.230469 197.28125 175.292969 197.132812 C 177.277344 192.191406 178.082031 191.855469 178.269531 191.855469 C 178.3125 191.855469 178.605469 191.941406 179.007812 193.332031 C 179.429688 194.789062 179.980469 195.527344 180.695312 195.613281 C 181.773438 195.738281 182.742188 194.410156 184.074219 192.089844 C 184.199219 191.878906 184.117188 191.644531 183.925781 191.519531 Z M 183.925781 191.519531 " fill-opacity="1" fill-rule="nonzero"/><path fill="#000000" d="M 192.367188 191.390625 C 192.203125 191.242188 191.949219 191.265625 191.800781 191.433594 C 190.132812 193.355469 187.515625 196.417969 187.089844 196.964844 C 186.964844 197.113281 186.835938 197.28125 186.710938 197.453125 C 186.542969 197.027344 186.332031 196.625 186.058594 196.207031 C 185.042969 194.640625 184.136719 193.164062 184.179688 192.128906 C 184.222656 191.308594 184.640625 190.589844 185.339844 190.167969 C 185.910156 189.828125 186.542969 189.765625 187.027344 189.996094 C 187.21875 190.082031 187.472656 189.996094 187.558594 189.789062 C 187.664062 189.597656 187.578125 189.34375 187.367188 189.261719 C 186.648438 188.921875 185.71875 189.003906 184.917969 189.472656 C 183.988281 190.039062 183.441406 190.992188 183.378906 192.089844 C 183.316406 193.375 184.242188 194.917969 185.382812 196.648438 C 185.738281 197.195312 185.972656 197.722656 186.121094 198.230469 C 184.476562 200.46875 182.703125 203.335938 183.609375 204.226562 C 183.757812 204.371094 183.945312 204.4375 184.136719 204.4375 C 184.476562 204.4375 184.855469 204.269531 185.257812 203.953125 C 186.394531 203.003906 187.578125 200.847656 187.007812 198.402344 C 187.238281 198.105469 187.472656 197.785156 187.726562 197.472656 C 188.148438 196.941406 190.765625 193.882812 192.410156 191.960938 C 192.558594 191.792969 192.535156 191.539062 192.367188 191.390625 Z M 185.511719 202.429688 C 184.9375 203.273438 184.371094 203.613281 184.179688 203.632812 C 184.09375 203.335938 184.371094 202.113281 186.332031 199.328125 C 186.417969 200.847656 185.78125 202.011719 185.511719 202.429688 Z M 185.511719 202.429688 " fill-opacity="1" fill-rule="nonzero"/><path fill="#000000" d="M 199.882812 191.667969 C 199.691406 191.5625 199.4375 191.625 199.332031 191.816406 C 197.328125 195.023438 195.640625 196.457031 195.28125 196.332031 C 195.28125 196.332031 194.859375 196.097656 195.261719 193.671875 C 195.410156 192.847656 195.472656 192.382812 195.070312 192.214844 C 194.691406 192.066406 194.460938 192.382812 194.015625 193.019531 C 193.65625 193.523438 193.171875 194.199219 192.640625 194.664062 C 192.578125 194.707031 192.347656 194.917969 192.242188 194.832031 C 191.925781 194.578125 191.863281 193.207031 192.601562 191.941406 C 192.726562 191.75 192.640625 191.496094 192.453125 191.371094 C 192.265625 191.265625 192.011719 191.328125 191.902344 191.519531 C 191.0625 192.996094 190.976562 194.832031 191.714844 195.445312 C 191.902344 195.613281 192.433594 195.910156 193.171875 195.296875 C 193.65625 194.875 194.078125 194.324219 194.417969 193.863281 C 194.121094 195.824219 194.289062 196.816406 194.984375 197.089844 C 195.089844 197.132812 195.195312 197.132812 195.28125 197.132812 C 196.886719 197.132812 199.480469 193.082031 200.011719 192.234375 C 200.136719 192.046875 200.074219 191.792969 199.882812 191.667969 Z M 199.882812 191.667969 " fill-opacity="1" fill-rule="nonzero"/><path fill="#000000" d="M 205.242188 176.449219 C 205.09375 176.257812 204.882812 176.171875 204.675781 176.195312 C 203.472656 176.40625 202.183594 180.902344 201.824219 182.273438 C 200.769531 186.304688 199.4375 192.027344 198.359375 197.15625 C 197.855469 199.582031 197.453125 201.628906 197.199219 203.109375 C 196.78125 205.597656 196.84375 205.914062 197.242188 206.019531 C 197.285156 206.042969 197.328125 206.042969 197.371094 206.042969 C 197.75 206.042969 197.941406 205.535156 198.128906 204.984375 C 198.191406 204.773438 198.089844 204.542969 197.878906 204.476562 C 197.855469 204.457031 197.835938 204.457031 197.8125 204.457031 C 198.257812 201.417969 200.074219 192.574219 201.929688 185.164062 C 201.929688 185.144531 201.949219 185.125 201.972656 185.101562 C 204.71875 180.753906 205.792969 177.292969 205.242188 176.449219 Z M 202.648438 182.3125 C 203.449219 179.339844 204.167969 177.902344 204.546875 177.3125 C 204.464844 178.09375 203.996094 179.78125 202.648438 182.3125 Z M 202.648438 182.3125 " fill-opacity="1" fill-rule="nonzero"/><path fill="#000000" d="M 220.0625 183.773438 C 219.785156 183.390625 218.5625 183.160156 205.453125 183.453125 C 205.878906 181.746094 206.257812 180.203125 206.59375 178.957031 C 206.65625 178.726562 206.53125 178.515625 206.320312 178.453125 C 206.109375 178.390625 205.878906 178.515625 205.8125 178.726562 C 205.453125 180.054688 205.054688 181.660156 204.609375 183.476562 C 203.449219 183.496094 202.183594 183.519531 200.808594 183.558594 C 198.933594 183.601562 197.453125 183.644531 196.886719 183.644531 C 196.652344 183.644531 196.460938 183.835938 196.460938 184.046875 C 196.460938 184.277344 196.652344 184.46875 196.886719 184.46875 C 197.472656 184.445312 198.953125 184.425781 200.832031 184.363281 C 201.824219 184.339844 203.046875 184.320312 204.421875 184.277344 C 203.511719 188.121094 202.480469 192.722656 201.550781 197.21875 C 200.875 200.511719 200.328125 203.359375 199.964844 205.449219 C 199.777344 206.546875 199.648438 207.414062 199.585938 208.003906 C 199.503906 208.804688 199.460938 209.269531 199.859375 209.417969 C 199.925781 209.417969 199.964844 209.441406 200.03125 209.441406 C 200.390625 209.441406 200.578125 208.929688 200.746094 208.46875 C 200.832031 208.257812 200.726562 208.023438 200.515625 207.941406 C 200.472656 207.941406 200.453125 207.917969 200.410156 207.917969 C 200.621094 206.273438 201.253906 202.578125 202.480469 196.753906 C 203.386719 192.339844 204.378906 187.929688 205.261719 184.257812 C 211.070312 184.132812 218.605469 184.027344 219.472656 184.320312 C 219.617188 184.445312 219.808594 184.445312 219.976562 184.339844 C 220.144531 184.214844 220.1875 183.960938 220.0625 183.773438 Z M 220.0625 183.773438 " fill-opacity="1" fill-rule="nonzero"/><path fill="#000000" d="M 212.695312 191.644531 C 212.503906 191.496094 212.25 191.539062 212.125 191.710938 C 211.238281 192.847656 209.78125 193.796875 208.660156 193.585938 C 208.683594 193.4375 208.703125 193.289062 208.703125 193.144531 C 208.851562 190.761719 208.113281 190.273438 207.667969 190.1875 C 207.164062 190.082031 206.636719 190.464844 206.382812 191.09375 C 206.277344 191.054688 206.152344 191.054688 206.046875 191.136719 C 205.203125 191.667969 204.503906 193.019531 204.886719 194.472656 C 205.140625 195.339844 205.730469 195.886719 206.507812 195.886719 C 207.25 195.886719 208.03125 195.339844 208.433594 194.367188 C 209.90625 194.683594 211.683594 193.585938 212.757812 192.214844 C 212.90625 192.027344 212.863281 191.773438 212.695312 191.644531 Z M 206.53125 195.085938 C 206.507812 195.085938 206.507812 195.085938 206.507812 195.085938 C 205.984375 195.066406 205.75 194.558594 205.6875 194.261719 C 205.472656 193.542969 205.644531 192.550781 206.238281 192.003906 C 206.277344 192.722656 206.679688 193.5 207.691406 194.050781 C 207.398438 194.726562 206.890625 195.085938 206.53125 195.085938 Z M 207.902344 193.101562 C 207.882812 193.144531 207.882812 193.1875 207.882812 193.226562 C 207.082031 192.699219 206.953125 192.027344 207.101562 191.496094 C 207.207031 191.160156 207.417969 190.992188 207.523438 190.992188 C 207.628906 191.011719 207.988281 191.414062 207.902344 193.101562 Z M 207.902344 193.101562 " fill-opacity="1" fill-rule="nonzero"/><path fill="#000000" d="M 221.074219 191.453125 C 220.863281 191.347656 220.609375 191.433594 220.527344 191.644531 C 218.097656 196.753906 215.796875 199.371094 215.292969 199.285156 C 215.25 199.265625 214.507812 198.546875 216.894531 191.222656 C 216.957031 191.03125 217.105469 190.589844 216.765625 190.355469 C 216.453125 190.101562 216.09375 190.335938 215.5 190.738281 C 214.867188 191.136719 214.003906 191.710938 213.328125 191.625 C 215.480469 187.90625 215.269531 187.085938 214.785156 186.769531 C 214.023438 186.328125 212.925781 187.613281 212.417969 188.351562 C 211.386719 189.957031 211.40625 191.414062 212.503906 192.152344 C 213.621094 192.933594 215.082031 191.984375 215.945312 191.414062 C 215.964844 191.390625 215.964844 191.390625 215.988281 191.371094 C 215.164062 193.96875 214.636719 196.015625 214.445312 197.429688 C 214.214844 198.988281 214.382812 199.816406 214.972656 200.046875 C 215.082031 200.066406 215.164062 200.085938 215.269531 200.085938 C 216.957031 200.085938 219.890625 194.894531 221.261719 192.003906 C 221.347656 191.792969 221.261719 191.539062 221.074219 191.453125 Z M 212.546875 189.996094 C 212.84375 188.859375 213.835938 187.800781 214.277344 187.550781 C 214.238281 187.886719 214.003906 188.835938 212.652344 191.179688 C 212.503906 190.949219 212.398438 190.589844 212.546875 189.996094 Z M 212.546875 189.996094 " fill-opacity="1" fill-rule="nonzero"/><path fill="#000000" d="M 226.390625 191.433594 C 226.203125 191.308594 225.96875 191.371094 225.84375 191.5625 C 224.429688 193.839844 222.066406 195.992188 221.347656 195.695312 C 221.265625 195.65625 220.585938 195.257812 221.515625 191.6875 C 221.558594 191.453125 221.429688 191.242188 221.222656 191.179688 C 220.988281 191.136719 220.777344 191.265625 220.714844 191.476562 C 219.957031 194.449219 220.0625 196.035156 221.011719 196.4375 C 221.160156 196.5 221.304688 196.519531 221.453125 196.519531 C 223.035156 196.519531 225.464844 193.691406 226.539062 191.984375 C 226.648438 191.792969 226.582031 191.539062 226.390625 191.433594 Z M 221.410156 189.726562 C 222.488281 189.789062 222.464844 188.4375 221.597656 188.730469 C 221.160156 188.859375 220.585938 189.683594 221.410156 189.726562 Z M 221.410156 189.726562 " fill-opacity="1" fill-rule="nonzero"/><path fill="#000000" d="M 234.390625 191.539062 C 234.203125 191.453125 233.949219 191.539062 233.863281 191.730469 C 232.261719 195 231.058594 196.035156 230.484375 195.929688 C 230.253906 195.886719 229.496094 195.445312 229.304688 191.75 C 229.304688 191.582031 229.175781 191.433594 229.027344 191.390625 C 228.863281 191.347656 228.671875 191.390625 228.585938 191.539062 C 228.460938 191.6875 228.332031 191.855469 228.207031 192.046875 C 227.679688 192.765625 226.980469 193.734375 226.136719 194.640625 C 226.011719 194.789062 225.90625 194.875 225.839844 194.917969 C 225.695312 194.179688 226.476562 191.347656 227.722656 190.464844 C 228.078125 190.210938 228.566406 190.019531 229.21875 190.78125 C 229.367188 190.949219 229.621094 190.96875 229.792969 190.824219 C 229.960938 190.695312 229.980469 190.421875 229.855469 190.25 C 229.050781 189.324219 228.292969 189.34375 227.785156 189.515625 C 226.160156 190.082031 225.0625 193.207031 225.019531 194.640625 C 225 195.234375 225.167969 195.613281 225.507812 195.738281 C 226.03125 195.953125 226.5625 195.382812 226.730469 195.191406 C 227.449219 194.410156 228.101562 193.566406 228.566406 192.914062 C 228.800781 195.320312 229.367188 196.519531 230.316406 196.730469 C 230.402344 196.730469 230.484375 196.753906 230.570312 196.753906 C 232.007812 196.753906 233.546875 194.242188 234.582031 192.089844 C 234.6875 191.878906 234.601562 191.644531 234.390625 191.539062 Z M 234.390625 191.539062 " fill-opacity="1" fill-rule="nonzero"/></svg>